<svg width="15" height="24" viewBox="0 0 15 24" fill="none" xmlns="http://www.w3.org/2000/svg">
<path id="Vector (Stroke)" fill-rule="evenodd" clip-rule="evenodd" d="M2.15625 1.07357C2.15625 0.475259 2.65993 -0.00976562 3.28125 -0.00976562H11.8154C12.4368 -0.00976562 12.9404 0.475259 12.9404 1.07357C12.9404 1.63667 12.4943 2.09943 11.9238 2.15194L11.9611 4.92172C11.9611 5.24533 12.1331 5.75583 12.4941 6.39837C12.8367 7.00826 13.2741 7.6076 13.6379 8.07465C13.6721 8.11866 13.7029 8.16512 13.7298 8.21363C14.5636 9.71466 15.0059 11.3975 15.0059 13.1159V20.9363C15.0059 22.6315 13.5787 24.0057 11.8184 24.0057H3.27832C1.51795 24.0057 0.0908203 22.6315 0.0908203 20.9363V13.1159C0.0908203 11.3975 0.533064 9.71466 1.36686 8.21363C1.39381 8.16512 1.42455 8.11866 1.45883 8.07465C1.82255 7.6076 2.26 7.00826 2.60263 6.39837C2.96359 5.75583 3.13566 5.24533 3.13566 4.92172V4.90767L3.17288 2.15194C2.6024 2.09943 2.15625 1.63667 2.15625 1.07357ZM5.423 2.1569L5.38565 4.92952C5.3833 5.81206 4.98212 6.71636 4.5816 7.4293C4.18056 8.14318 3.69435 8.81158 3.31242 9.30558C2.67727 10.476 2.34082 11.7824 2.34082 13.1159V20.9363C2.34082 21.4348 2.76059 21.8391 3.27832 21.8391H11.8184C12.3361 21.8391 12.7559 21.4348 12.7559 20.9363V13.1159C12.7559 11.7824 12.4194 10.476 11.7843 9.30558C11.4023 8.81157 10.9161 8.14318 10.5151 7.4293C10.1146 6.71636 9.71339 5.81208 9.71103 4.92954L9.67368 2.1569H5.423Z" fill="#1D1D1F"/>
</svg>
