<svg width="91" height="83" viewBox="0 0 91 83" fill="none" xmlns="http://www.w3.org/2000/svg">
<path fill-rule="evenodd" clip-rule="evenodd" d="M36.2918 14.7739C33.9637 16.1707 32.75 17.9611 32.75 19.75C32.75 21.5389 33.9637 23.3293 36.2918 24.7261C38.5999 26.111 41.8531 27 45.5 27C49.1469 27 52.4001 26.111 54.7082 24.7261C57.0363 23.3293 58.25 21.5389 58.25 19.75C58.25 17.9611 57.0363 16.1707 54.7082 14.7739C52.4001 13.389 49.1469 12.5 45.5 12.5C41.8531 12.5 38.5999 13.389 36.2918 14.7739ZM35.2628 13.0589C37.9312 11.4578 41.553 10.5 45.5 10.5C49.447 10.5 53.0688 11.4578 55.7372 13.0589C58.3857 14.648 60.25 16.9826 60.25 19.75C60.25 22.5174 58.3857 24.852 55.7372 26.4411C53.0688 28.0422 49.447 29 45.5 29C41.553 29 37.9312 28.0422 35.2628 26.4411C32.6143 24.852 30.75 22.5174 30.75 19.75C30.75 16.9826 32.6143 14.648 35.2628 13.0589Z" fill="#86868B"/>
<path d="M53.75 19.75C53.75 22.0282 50.0563 23.875 45.5 23.875C40.9437 23.875 37.25 22.0282 37.25 19.75C37.25 17.4718 40.9437 15.625 45.5 15.625C50.0563 15.625 53.75 17.4718 53.75 19.75Z" fill="#9E9E9E"/>
<path fill-rule="evenodd" clip-rule="evenodd" d="M30.75 19.7501C30.75 19.75 30.75 19.75 31.75 19.75C32.75 19.75 32.75 19.75 32.75 19.7501V36.25C32.75 38.0389 33.9637 39.8293 36.2918 41.2261C38.5999 42.611 41.8531 43.5 45.5 43.5C49.1469 43.5 52.4001 42.611 54.7082 41.2261C57.0363 39.8293 58.25 38.0389 58.25 36.25V19.75H60.25V36.25C60.25 39.0174 58.3857 41.352 55.7372 42.9411C53.0688 44.5422 49.447 45.5 45.5 45.5C41.553 45.5 37.9312 44.5422 35.2628 42.9411C32.6143 41.352 30.75 39.0174 30.75 36.25V19.7501Z" fill="#86868B"/>
<path d="M21.2003 71V59.3636H25.348C26.2533 59.3636 27.0033 59.5284 27.598 59.858C28.1927 60.1875 28.6378 60.6383 28.9332 61.2102C29.2287 61.7784 29.3764 62.4186 29.3764 63.1307C29.3764 63.8466 29.2268 64.4905 28.9276 65.0625C28.6321 65.6307 28.1851 66.0814 27.5866 66.4148C26.992 66.7443 26.2438 66.9091 25.3423 66.9091H22.4901V65.4205H25.1832C25.7552 65.4205 26.2192 65.322 26.5753 65.125C26.9313 64.9242 27.1927 64.6515 27.3594 64.3068C27.526 63.9621 27.6094 63.5701 27.6094 63.1307C27.6094 62.6913 27.526 62.3011 27.3594 61.9602C27.1927 61.6193 26.9295 61.3523 26.5696 61.1591C26.2135 60.9659 25.7438 60.8693 25.1605 60.8693H22.956V71H21.2003ZM34.8651 71.1761C34.0469 71.1761 33.3329 70.9886 32.723 70.6136C32.1132 70.2386 31.6397 69.714 31.3026 69.0398C30.9654 68.3655 30.7969 67.5777 30.7969 66.6761C30.7969 65.7708 30.9654 64.9792 31.3026 64.3011C31.6397 63.6231 32.1132 63.0966 32.723 62.7216C33.3329 62.3466 34.0469 62.1591 34.8651 62.1591C35.6832 62.1591 36.3973 62.3466 37.0071 62.7216C37.617 63.0966 38.0904 63.6231 38.4276 64.3011C38.7647 64.9792 38.9332 65.7708 38.9332 66.6761C38.9332 67.5777 38.7647 68.3655 38.4276 69.0398C38.0904 69.714 37.617 70.2386 37.0071 70.6136C36.3973 70.9886 35.6832 71.1761 34.8651 71.1761ZM34.8707 69.75C35.401 69.75 35.8404 69.6098 36.1889 69.3295C36.5374 69.0492 36.795 68.6761 36.9616 68.2102C37.1321 67.7443 37.2173 67.2311 37.2173 66.6705C37.2173 66.1136 37.1321 65.6023 36.9616 65.1364C36.795 64.6667 36.5374 64.2898 36.1889 64.0057C35.8404 63.7216 35.401 63.5795 34.8707 63.5795C34.3366 63.5795 33.8935 63.7216 33.5412 64.0057C33.1927 64.2898 32.9332 64.6667 32.7628 65.1364C32.5961 65.6023 32.5128 66.1136 32.5128 66.6705C32.5128 67.2311 32.5961 67.7443 32.7628 68.2102C32.9332 68.6761 33.1927 69.0492 33.5412 69.3295C33.8935 69.6098 34.3366 69.75 34.8707 69.75ZM40.142 71L40.1364 69.5284H40.4489C40.6913 69.5284 40.8939 69.4773 41.0568 69.375C41.2235 69.2689 41.3598 69.0909 41.4659 68.8409C41.572 68.5909 41.6534 68.2462 41.7102 67.8068C41.767 67.3636 41.8087 66.8068 41.8352 66.1364L41.9886 62.2727H48.0795V71H46.4148V63.7386H43.5625L43.4261 66.7045C43.392 67.4242 43.3182 68.053 43.2045 68.5909C43.0947 69.1288 42.9337 69.5777 42.7216 69.9375C42.5095 70.2936 42.2367 70.5606 41.9034 70.7386C41.5701 70.9129 41.1648 71 40.6875 71H40.142ZM49.6577 71L49.652 69.5284H49.9645C50.2069 69.5284 50.4096 69.4773 50.5724 69.375C50.7391 69.2689 50.8755 69.0909 50.9815 68.8409C51.0876 68.5909 51.169 68.2462 51.2259 67.8068C51.2827 67.3636 51.3243 66.8068 51.3509 66.1364L51.5043 62.2727H57.5952V71H55.9304V63.7386H53.0781L52.9418 66.7045C52.9077 67.4242 52.8338 68.053 52.7202 68.5909C52.6103 69.1288 52.4493 69.5777 52.2372 69.9375C52.0251 70.2936 51.7524 70.5606 51.419 70.7386C51.0857 70.9129 50.6804 71 50.2031 71H49.6577ZM61.1392 65.2727H63.6733C64.7415 65.2727 65.5634 65.5379 66.1392 66.0682C66.715 66.5985 67.0028 67.2822 67.0028 68.1193C67.0028 68.6648 66.8741 69.1553 66.6165 69.5909C66.3589 70.0265 65.982 70.3712 65.4858 70.625C64.9896 70.875 64.3854 71 63.6733 71H59.8608V62.2727H61.5256V69.5341H63.6733C64.1619 69.5341 64.5634 69.4072 64.8778 69.1534C65.1922 68.8958 65.3494 68.5682 65.3494 68.1705C65.3494 67.75 65.1922 67.4072 64.8778 67.142C64.5634 66.8731 64.1619 66.7386 63.6733 66.7386H61.1392V65.2727ZM68.2415 71V62.2727H69.9403V71H68.2415Z" fill="#1D1D1F"/>
</svg>
